<?xml version="1.0" encoding="utf-8"?>
<!-- Generator: Adobe Illustrator 27.5.0, SVG Export Plug-In . SVG Version: 6.00 Build 0)  -->
<svg version="1.1" xmlns="http://www.w3.org/2000/svg" xmlns:xlink="http://www.w3.org/1999/xlink" x="0px" y="0px"
	 viewBox="0 0 500 500" style="enable-background:new 0 0 500 500;" xml:space="preserve">
<g id="Floor">
	<path id="Floor_9_" style="fill:#F0F0F0;" d="M95.504,429.522c82.556,43.128,216.407,43.129,298.962,0.001
		c82.557-43.129,82.557-113.053,0-156.181c-82.556-43.129-216.407-43.129-298.964-0.001
		C12.947,316.469,12.947,386.394,95.504,429.522z"/>
</g>
<g id="Shadow">
	<path id="Shadow_26_" style="fill:#E0E0E0;" d="M165.661,440.9l3.703,2.193c1.196,0.69,3.134,0.69,4.33,0L414.696,304.01
		c1.196-0.69,1.196-1.81,0-2.5l-3.704-2.193c-1.196-0.69-3.134-0.69-4.33,0l-241,139.083
		C164.465,439.091,164.465,440.21,165.661,440.9z"/>
	<path id="Shadow_27_" style="fill:#E0E0E0;" d="M116.9,412.822l3.703,2.193c1.196,0.69,3.134,0.69,4.33,0l241.002-139.084
		c1.196-0.69,1.196-1.81,0-2.5l-3.704-2.193c-1.196-0.69-3.134-0.69-4.33,0l-241,139.083
		C115.704,411.012,115.704,412.131,116.9,412.822z"/>
	<path id="Shadow_28_" style="fill:#E0E0E0;" d="M68.139,384.743l3.703,2.193c1.196,0.69,3.134,0.69,4.33,0l241.002-139.084
		c1.196-0.69,1.196-1.81,0-2.5l-3.704-2.193c-1.196-0.69-3.134-0.69-4.33,0l-241,139.083
		C66.944,382.933,66.944,384.052,68.139,384.743z"/>
</g>
<g id="Plants">
	<g id="Plants_21_">
		<g id="XMLID_17565_">
			<g id="XMLID_17572_">
				<path id="XMLID_17576_" style="fill:#E0E0E0;" d="M71.706,342.37c0.29-0.117,1.208-19.749-7.238-31.315
					c-8.446-11.566-18.682-12.901-25.407-10.078c-6.725,2.823-5.345,9.72,2.931,13.858c8.277,4.139,18.581,11.381,21.037,24.578
					L71.706,342.37z"/>
			</g>
			<g id="XMLID_17566_">
				<path id="XMLID_17568_" style="fill:#FFFFFF;" d="M68.597,336.617c-0.305,0-0.572-0.222-0.622-0.532
					c-3.17-19.931-14.954-29.698-24.925-32.191c-0.338-0.085-0.544-0.427-0.459-0.765c0.084-0.339,0.427-0.542,0.764-0.459
					c10.362,2.592,22.598,12.678,25.865,33.218c0.055,0.344-0.18,0.666-0.523,0.721C68.663,336.615,68.63,336.617,68.597,336.617z"
					/>
			</g>
		</g>
		<g id="XMLID_17546_">
			<g id="XMLID_17553_">
				<path id="XMLID_17554_" style="fill:#E6E6E6;" d="M70.182,378.815c-1.285-5.172-6.495-8.59-12.645-9.145
					c-6.385-0.576-13.823-1.203-15.802-6.604c-1.979-5.401,0.019-12.7-0.892-16.29c-1.1-4.334-2.762-6.924-11.154-9.558
					c-7.524-2.362-11.68-9.553-4.095-12.588c4.75-1.901,9.984-1.95,14.904-0.706c3.174,0.803,6.199,2.119,9.403,2.812
					c1.456,0.315,3.022,0.527,4.498,0.625c1.747,0.116,3.503-0.472,5.273-0.358c4.55,0.291,8.632,3.414,10.778,7.437
					c1.511,2.831,1.173,6.016,1.057,9.104c-0.117,3.115-0.234,6.229-0.351,9.343c-0.255,6.768-0.509,13.537-0.763,20.306
					C70.323,375.066,70.253,376.941,70.182,378.815z"/>
			</g>
			<g id="XMLID_17551_">
				<path id="XMLID_17552_" style="fill:#FFFFFF;" d="M70.182,361.269c-0.259,0-0.501-0.16-0.593-0.417
					c-5.969-16.635-30.381-31.679-38.491-32.639c-0.346-0.041-0.593-0.353-0.552-0.699c0.041-0.346,0.352-0.604,0.7-0.552
					c8.335,0.986,33.412,16.413,39.53,33.464c0.118,0.327-0.053,0.688-0.381,0.806C70.325,361.256,70.253,361.269,70.182,361.269z"
					/>
			</g>
			<g id="XMLID_17549_">
				<path id="XMLID_17550_" style="fill:#FFFFFF;" d="M61.539,347.631c-0.047-0.005-0.094-0.014-0.14-0.03
					c-0.33-0.112-0.506-0.47-0.395-0.8c2.858-8.419,1.458-14.172,1.444-14.229c-0.086-0.336,0.118-0.68,0.455-0.766
					c0.336-0.085,0.68,0.117,0.766,0.454c0.063,0.246,1.516,6.146-1.471,14.948C62.102,347.489,61.824,347.659,61.539,347.631z"/>
			</g>
			<g id="XMLID_17547_">
				<path id="XMLID_17548_" style="fill:#FFFFFF;" d="M68.597,357.663c-0.102,0-0.204-0.025-0.3-0.076
					c-4.9-2.658-15.53-0.761-15.637-0.741c-0.34,0.058-0.671-0.165-0.733-0.507c-0.063-0.342,0.164-0.671,0.507-0.734
					c0.454-0.081,11.172-1.996,16.464,0.874c0.306,0.166,0.42,0.549,0.254,0.854C69.038,357.543,68.821,357.663,68.597,357.663z"/>
			</g>
		</g>
	</g>
	<g id="Plants_1_">
		<g id="XMLID_10_">
			<g id="XMLID_13_">
				<path id="XMLID_14_" style="fill:#27DEBF;" d="M71.706,342.37c0.29-0.117,1.208-19.749-7.238-31.315
					c-8.446-11.566-18.682-12.901-25.407-10.078c-6.725,2.823-5.345,9.72,2.931,13.858c8.277,4.139,18.581,11.381,21.037,24.578
					L71.706,342.37z"/>
			</g>
			<g id="XMLID_935_" style="opacity:0.1;">
				<path id="XMLID_936_" d="M71.706,342.37c0.29-0.117,1.208-19.749-7.238-31.315c-8.446-11.566-18.682-12.901-25.407-10.078
					c-6.725,2.823-5.345,9.72,2.931,13.858c8.277,4.139,18.581,11.381,21.037,24.578L71.706,342.37z"/>
			</g>
			<g id="XMLID_11_">
				<path id="XMLID_12_" style="fill:#FFFFFF;" d="M68.597,336.617c-0.305,0-0.572-0.222-0.622-0.532
					c-3.17-19.931-14.954-29.698-24.925-32.191c-0.338-0.085-0.544-0.427-0.459-0.765c0.084-0.339,0.427-0.542,0.764-0.459
					c10.362,2.592,22.598,12.678,25.865,33.218c0.055,0.344-0.18,0.666-0.523,0.721C68.663,336.615,68.63,336.617,68.597,336.617z"
					/>
			</g>
		</g>
		<g id="XMLID_1_">
			<g id="XMLID_8_">
				<path id="XMLID_9_" style="fill:#27DEBF;" d="M70.182,378.815c-1.285-5.172-6.495-8.59-12.645-9.145
					c-6.385-0.576-13.823-1.203-15.802-6.604c-1.979-5.401,0.019-12.7-0.892-16.29c-1.1-4.334-2.762-6.924-11.154-9.558
					c-7.524-2.362-11.68-9.553-4.095-12.588c4.75-1.901,9.984-1.95,14.904-0.706c3.174,0.803,6.199,2.119,9.403,2.812
					c1.456,0.315,3.022,0.527,4.498,0.625c1.747,0.116,3.503-0.472,5.273-0.358c4.55,0.291,8.632,3.414,10.778,7.437
					c1.511,2.831,1.173,6.016,1.057,9.104c-0.117,3.115-0.234,6.229-0.351,9.343c-0.255,6.768-0.509,13.537-0.763,20.306
					C70.323,375.066,70.253,376.941,70.182,378.815z"/>
			</g>
			<g id="XMLID_6_">
				<path id="XMLID_7_" style="fill:#FFFFFF;" d="M70.182,361.269c-0.259,0-0.501-0.16-0.593-0.417
					c-5.969-16.635-30.381-31.679-38.491-32.639c-0.346-0.041-0.593-0.353-0.552-0.699c0.041-0.346,0.352-0.604,0.7-0.552
					c8.335,0.986,33.412,16.413,39.53,33.464c0.118,0.327-0.053,0.688-0.381,0.806C70.325,361.256,70.253,361.269,70.182,361.269z"
					/>
			</g>
			<g id="XMLID_4_">
				<path id="XMLID_5_" style="fill:#FFFFFF;" d="M61.539,347.631c-0.047-0.005-0.094-0.014-0.14-0.03
					c-0.33-0.112-0.506-0.47-0.395-0.8c2.858-8.419,1.458-14.172,1.444-14.229c-0.086-0.336,0.118-0.68,0.455-0.766
					c0.336-0.085,0.68,0.117,0.766,0.454c0.063,0.246,1.516,6.146-1.471,14.948C62.102,347.489,61.824,347.659,61.539,347.631z"/>
			</g>
			<g id="XMLID_2_">
				<path id="XMLID_3_" style="fill:#FFFFFF;" d="M68.597,357.663c-0.102,0-0.204-0.025-0.3-0.076
					c-4.9-2.658-15.53-0.761-15.637-0.741c-0.34,0.058-0.671-0.165-0.733-0.507c-0.063-0.342,0.164-0.671,0.507-0.734
					c0.454-0.081,11.172-1.996,16.464,0.874c0.306,0.166,0.42,0.549,0.254,0.854C69.038,357.543,68.821,357.663,68.597,357.663z"/>
			</g>
		</g>
	</g>
</g>
<g id="Windows_1_">
	<g id="XMLID_17204_">
		<path id="XMLID_17346_" style="fill:#27DEBF;" d="M72.354,384.349c-1.121-0.648-2.031-2.292-2.031-3.673L70.323,174.65
			c0-1.381,0.969-3.06,2.165-3.75L307.81,35.046c1.196-0.69,3.074-0.725,4.196-0.077c1.122,0.648,2.031,2.292,2.031,3.673
			l0.001,206.026c0,1.381-0.969,3.06-2.165,3.75L76.55,384.271C75.354,384.962,73.476,384.996,72.354,384.349z"/>
		<path id="XMLID_17320_" style="opacity:0.4;fill:#FFFFFF;" d="M314.013,38.288c-0.15-1.12-1.06-1.53-2.14-0.9L76.549,173.243
			c-0.59,0.35-1.13,0.94-1.53,1.62l-4.06-2.35c0.4-0.68,0.93-1.26,1.53-1.61L307.813,35.048c1.19-0.69,3.07-0.73,4.19-0.08
			C313.033,35.568,313.883,36.988,314.013,38.288z"/>
		<path id="XMLID_17316_" style="fill:#F0F0F0;" d="M76.139,384.459c-0.03,0.01-0.06,0.03-0.09,0.03c-0.07,0.04-0.14,0.06-0.21,0.08
			c-0.05,0.02-0.1,0.04-0.16,0.05c-0.09,0.03-0.19,0.06-0.3,0.07c-0.06,0.02-0.13,0.04-0.2,0.04c-0.1,0.02-0.22,0.04-0.33,0.05
			c-0.89,0.1-1.82-0.04-2.49-0.43c-1.13-0.65-2.03-2.29-2.03-3.67l-0.01-180.385l4.07,2.35v180.375c0,0.98,0.49,1.55,1.2,1.55
			c0.1,0,0.19-0.01,0.29-0.04c0.02,0,0.03,0,0.05-0.01C75.999,384.509,76.069,384.489,76.139,384.459z"/>
		<path id="XMLID_17303_" style="opacity:0.1;" d="M75.019,174.863c-0.39,0.67-0.63,1.44-0.63,2.13v25.65l-4.07-2.35v-25.64
			c0-0.09,0-0.17,0.01-0.26c0.02-0.18,0.05-0.36,0.09-0.54c0.11-0.45,0.3-0.92,0.54-1.34L75.019,174.863z"/>
		<path id="XMLID_17287_" style="fill:#27DEBF;" d="M314.033,38.638v11.57l-172.494,99.585c-1.19,0.69-2.16,0.13-2.16-1.25v-4.38
			c0-1.38-0.97-1.94-2.17-1.25l-52.53,30.33c-1.2,0.69-2.17,2.37-2.17,3.75v4.38c0,1.38-0.97,3.06-2.16,3.75l-5.96,3.44v-11.57
			c0-1.38,0.97-3.06,2.16-3.75L311.873,37.388C313.063,36.698,314.033,37.258,314.033,38.638z"/>
		<path id="XMLID_17286_" style="fill:#FAFAFA;" d="M314.043,244.663c0,1.38-0.97,3.06-2.17,3.75L76.549,384.269
			c-1.19,0.69-2.16,0.13-2.16-1.25V188.563l5.96-3.44c1.19-0.69,3.13-11.19,4.33-11.88l51.651-29.823
			c1.2-0.69,4.019,7.063,5.209,6.373l172.494-99.585v14.08L314.043,244.663z"/>
		<path id="XMLID_17285_" style="fill:#E6E6E6;" d="M314.033,50.208v14.08L74.389,202.643v-14.08l4.451-2.578
			c1.19-0.69,1.59-1.739,2.16-3.75l1.509-5.242c0.476-1.82,0.97-3.06,2.17-3.75l51.651-29.823c1.2-0.69,2.136-0.766,3.049,0.743
			l1.852,3.361c0.679,1.174,1.019,1.864,2.209,1.174L314.033,50.208z"/>
		<g id="XMLID_17268_">
			<path id="XMLID_17283_" style="fill:#FFFFFF;" d="M303.882,45.894c1.505-0.869,2.724-0.165,2.724,1.573
				c0,1.737-1.22,3.85-2.724,4.719c-1.505,0.869-2.724,0.165-2.724-1.573S302.377,46.763,303.882,45.894z"/>
			<path id="XMLID_17275_" style="fill:#FFFFFF;" d="M294.073,51.549c1.505-0.869,2.724-0.164,2.724,1.573s-1.22,3.85-2.724,4.719
				c-1.505,0.869-2.724,0.164-2.724-1.573S292.569,52.418,294.073,51.549z"/>
			<path id="XMLID_17271_" style="fill:#FFFFFF;" d="M284.265,57.204c1.505-0.869,2.724-0.164,2.724,1.573s-1.22,3.85-2.724,4.719
				c-1.505,0.869-2.725,0.164-2.725-1.573S282.76,58.073,284.265,57.204z"/>
		</g>
		<path id="XMLID_17256_" style="opacity:0.5;fill:#455A64;" d="M84.32,189.578l-3.399,1.962l1.296-2.492
			c0.114-0.219,0.125-0.491,0.026-0.609c-0.099-0.119-0.272-0.035-0.385,0.183l-1.844,3.547c-0.002,0.004-0.003,0.009-0.005,0.014
			c-0.02,0.041-0.036,0.085-0.049,0.131c-0.005,0.015-0.012,0.028-0.015,0.043c-0.015,0.061-0.024,0.123-0.024,0.183
			c0,0.061,0.009,0.112,0.024,0.156c0.004,0.011,0.011,0.016,0.015,0.026c0.014,0.03,0.029,0.057,0.049,0.074
			c0.002,0.002,0.003,0.006,0.005,0.008l1.844,1.418c0.052,0.04,0.116,0.037,0.18,0c0.076-0.044,0.152-0.136,0.206-0.262
			c0.1-0.233,0.088-0.492-0.026-0.579l-1.296-0.996l3.399-1.962c0.151-0.087,0.273-0.346,0.273-0.579
			C84.593,189.609,84.471,189.491,84.32,189.578z"/>
		<path id="XMLID_17252_" style="opacity:0.5;fill:#455A64;" d="M87.159,187.939l3.399-1.962l-1.296-0.996
			c-0.114-0.087-0.126-0.346-0.026-0.579c0.099-0.233,0.272-0.349,0.386-0.262l1.844,1.417c0.002,0.002,0.003,0.006,0.005,0.008
			c0.02,0.017,0.035,0.044,0.049,0.074c0.004,0.01,0.011,0.015,0.015,0.026c0.015,0.043,0.024,0.095,0.024,0.156
			c0,0.061-0.009,0.123-0.024,0.183c-0.004,0.015-0.011,0.029-0.015,0.043c-0.014,0.046-0.029,0.09-0.049,0.131
			c-0.002,0.004-0.003,0.009-0.005,0.014l-1.844,3.547c-0.052,0.1-0.116,0.171-0.18,0.208c-0.076,0.044-0.152,0.039-0.206-0.025
			c-0.1-0.117-0.088-0.39,0.026-0.609l1.296-2.492l-3.399,1.962c-0.151,0.087-0.273-0.031-0.273-0.263
			C86.886,188.286,87.008,188.027,87.159,187.939z"/>
		<path id="XMLID_17221_" style="opacity:0.5;fill:#455A64;" d="M98.309,178.152c-0.021-0.205-0.199-0.179-0.29,0.043l-0.466,1.138
			c-0.794-0.086-1.756,0.689-2.405,2.064c-0.842,1.782-0.842,3.891,0,4.701c0.421,0.405,0.974,0.41,1.527,0.09
			c0.553-0.319,1.105-0.962,1.526-1.853c0.107-0.226,0.107-0.492,0-0.595c-0.107-0.103-0.28-0.003-0.387,0.223
			c-0.629,1.329-1.651,1.922-2.28,1.316c-0.629-0.605-0.629-2.18,0-3.51c0.447-0.947,1.091-1.507,1.652-1.541l-0.351,0.858
			c-0.091,0.223-0.008,0.43,0.135,0.337l1.386-0.905c0.097-0.063,0.169-0.24,0.155-0.38L98.309,178.152z"/>
		<path id="XMLID_17220_" style="opacity:0.5;fill:#455A64;" d="M134.839,149.847l1.239-2.623c0.146-0.31,0.146-0.676,0-0.816
			c-0.146-0.141-0.384-0.004-0.53,0.306l-1.239,2.623l-1.239-1.192c-0.146-0.141-0.384-0.004-0.53,0.306s-0.146,0.675,0,0.816
			l1.239,1.192l-1.239,2.623c-0.146,0.31-0.146,0.675,0,0.816c0.073,0.07,0.169,0.071,0.265,0.016
			c0.096-0.055,0.192-0.167,0.265-0.322l1.239-2.623l1.239,1.192c0.073,0.07,0.169,0.071,0.265,0.016
			c0.096-0.055,0.192-0.167,0.265-0.322c0.146-0.31,0.146-0.675,0-0.816L134.839,149.847z"/>
		<path id="XMLID_17219_" style="fill:#FAFAFA;" d="M102.819,181.376v-4.381c0-1.381,0.969-3.06,2.165-3.75L299.686,60.892
			c1.196-0.69,2.165-0.131,2.165,1.25l0,4.381c0,1.381-0.969,3.06-2.165,3.75L104.984,182.626
			C103.788,183.316,102.819,182.757,102.819,181.376z"/>
		<path id="XMLID_17218_" style="fill:none;stroke:#E0E0E0;stroke-width:0.75;stroke-miterlimit:10;" d="M298.423,63.208
			l0.569,1.208c0.036,0.076,0.105,0.103,0.185,0.073L300.449,64c0.202-0.077,0.283,0.207,0.136,0.481l-0.92,1.727
			c-0.058,0.109-0.085,0.233-0.071,0.332l0.217,1.563c0.035,0.248-0.177,0.575-0.357,0.552l-1.137-0.141
			c-0.072-0.009-0.157,0.041-0.229,0.132l-1.137,1.454c-0.181,0.231-0.392,0.148-0.357-0.14l0.217-1.814
			c0.014-0.114-0.013-0.208-0.071-0.25l-0.92-0.664c-0.146-0.106-0.065-0.483,0.137-0.639l1.272-0.98
			c0.08-0.062,0.149-0.169,0.185-0.287l0.569-1.864C298.072,63.166,298.333,63.016,298.423,63.208z"/>
		<g id="XMLID_17209_" style="opacity:0.5;">
			<g id="XMLID_17216_">
				<path id="XMLID_17217_" style="fill:#455A64;" d="M304.404,60.358c-0.26,0-0.512-0.134-0.65-0.375
					c-0.207-0.359-0.084-0.817,0.274-1.024l6.093-3.518c0.36-0.208,0.817-0.084,1.024,0.275c0.207,0.359,0.084,0.817-0.274,1.024
					l-6.093,3.518C304.66,60.326,304.531,60.358,304.404,60.358z"/>
			</g>
			<g id="XMLID_17212_">
				<path id="XMLID_17215_" style="fill:#455A64;" d="M304.404,63.877c-0.26,0-0.512-0.134-0.65-0.375
					c-0.207-0.359-0.084-0.817,0.274-1.024l6.093-3.518c0.36-0.209,0.817-0.084,1.024,0.274c0.207,0.359,0.084,0.817-0.274,1.024
					l-6.093,3.518C304.66,63.845,304.531,63.877,304.404,63.877z"/>
			</g>
			<g id="XMLID_17210_">
				<path id="XMLID_17211_" style="fill:#455A64;" d="M304.404,67.396c-0.26,0-0.512-0.134-0.65-0.375
					c-0.207-0.359-0.084-0.817,0.274-1.024l6.093-3.518c0.36-0.209,0.817-0.084,1.024,0.274c0.207,0.359,0.084,0.817-0.274,1.025
					l-6.093,3.518C304.66,67.364,304.531,67.396,304.404,67.396z"/>
			</g>
		</g>
		<polygon id="XMLID_17205_" style="fill:#E0E0E0;" points="74.389,188.563 74.389,202.643 70.319,200.293 70.319,186.223 		"/>
		<g id="XMLID_911_">
			<path id="XMLID_934_" style="fill:#F0F0F0;" d="M84.675,238.916l44.412-25.643c1.196-0.69,2.165-0.131,2.165,1.25v126.332
				c0,1.381-0.969,3.06-2.165,3.75l-44.413,25.642c-1.196,0.69-2.165,0.131-2.165-1.25l0-126.331
				C82.51,241.286,83.479,239.607,84.675,238.916z"/>
			<g id="XMLID_923_">
				<path id="XMLID_933_" style="fill:#E0E0E0;" d="M92.799,243.606l28.166-16.262c1.196-0.69,2.165-0.2,2.165,1.096
					c0,1.296-0.969,2.905-2.165,3.596l-28.167,16.262c-1.196,0.69-2.165,0.2-2.164-1.096
					C90.633,245.906,91.603,244.296,92.799,243.606z"/>
				<g id="XMLID_924_">
					<path id="XMLID_932_" style="fill:#FAFAFA;" d="M90.632,255.737v1.69c0,0.828,0.582,1.164,1.299,0.75l1.465-0.846
						c0.717-0.414,1.299-1.421,1.299-2.25l0-1.691c0-0.828-0.582-1.164-1.299-0.75l-1.464,0.846
						C91.214,253.902,90.632,254.909,90.632,255.737z"/>
					<path id="XMLID_931_" style="fill:#E0E0E0;" d="M98.757,251.892c0,1.295,0.969,1.786,2.165,1.095l20.042-11.571
						c1.196-0.69,2.165-2.3,2.165-3.595c0-1.295-0.969-1.786-2.165-1.095l-20.042,11.571
						C99.726,248.987,98.757,250.596,98.757,251.892z"/>
					<path id="XMLID_930_" style="fill:#FAFAFA;" d="M90.632,265.128v1.691c0,0.828,0.582,1.164,1.299,0.75l1.465-0.846
						c0.717-0.414,1.299-1.421,1.299-2.25l0-1.691c0-0.828-0.582-1.164-1.299-0.75l-1.464,0.846
						C91.214,263.292,90.632,264.299,90.632,265.128z"/>
					<path id="XMLID_929_" style="fill:#E0E0E0;" d="M98.757,261.282c0,1.295,0.969,1.786,2.165,1.095l20.042-11.571
						c1.196-0.69,2.165-2.3,2.165-3.595c0-1.295-0.969-1.786-2.165-1.095l-20.042,11.571
						C99.726,258.377,98.757,259.987,98.757,261.282z"/>
					<path id="XMLID_928_" style="fill:#FAFAFA;" d="M90.632,274.502v1.69c0,0.828,0.582,1.164,1.299,0.75l1.465-0.846
						c0.717-0.414,1.299-1.421,1.299-2.25l0-1.691c0-0.828-0.582-1.164-1.299-0.75l-1.464,0.846
						C91.214,272.666,90.632,273.674,90.632,274.502z"/>
					<path id="XMLID_927_" style="fill:#E0E0E0;" d="M98.757,270.656c0,1.295,0.969,1.786,2.165,1.096l20.042-11.571
						c1.196-0.69,2.165-2.3,2.165-3.595c0-1.295-0.969-1.785-2.165-1.095l-20.042,11.571
						C99.726,267.751,98.757,269.361,98.757,270.656z"/>
					<path id="XMLID_926_" style="fill:#FAFAFA;" d="M90.632,283.872v1.69c0,0.828,0.582,1.164,1.299,0.75l1.465-0.846
						c0.717-0.414,1.299-1.421,1.299-2.25l0-1.691c0-0.828-0.582-1.164-1.299-0.75l-1.464,0.846
						C91.214,282.037,90.632,283.044,90.632,283.872z"/>
					<path id="XMLID_925_" style="fill:#E0E0E0;" d="M98.757,280.027c0,1.295,0.969,1.786,2.165,1.096l20.042-11.571
						c1.196-0.69,2.165-2.3,2.165-3.595c0-1.295-0.969-1.786-2.165-1.095l-20.042,11.571
						C99.726,277.122,98.757,278.732,98.757,280.027z"/>
				</g>
			</g>
			<g id="XMLID_912_">
				<path id="XMLID_922_" style="fill:#E0E0E0;" d="M92.627,295.294l28.166-16.262c1.196-0.69,2.165-0.2,2.165,1.096
					c0,1.295-0.969,2.905-2.165,3.595l-28.167,16.262c-1.196,0.69-2.165,0.2-2.165-1.096
					C90.461,297.595,91.431,295.985,92.627,295.294z"/>
				<g id="XMLID_913_">
					<path id="XMLID_921_" style="fill:#FAFAFA;" d="M90.461,307.426v1.69c0,0.829,0.582,1.164,1.299,0.75l1.465-0.846
						c0.717-0.414,1.299-1.421,1.299-2.25l0-1.691c0-0.828-0.582-1.164-1.299-0.75l-1.464,0.846
						C91.042,305.59,90.461,306.598,90.461,307.426z"/>
					<path id="XMLID_920_" style="fill:#E0E0E0;" d="M98.585,303.581c0,1.295,0.969,1.786,2.165,1.095l20.042-11.571
						c1.196-0.69,2.165-2.3,2.165-3.595c0-1.295-0.969-1.785-2.165-1.095l-20.042,11.571
						C99.554,300.675,98.585,302.285,98.585,303.581z"/>
					<path id="XMLID_919_" style="fill:#FAFAFA;" d="M90.461,316.816v1.69c0,0.828,0.582,1.164,1.299,0.75l1.465-0.846
						c0.717-0.414,1.299-1.421,1.299-2.25l0-1.691c0-0.829-0.582-1.164-1.299-0.75l-1.464,0.846
						C91.042,314.98,90.461,315.988,90.461,316.816z"/>
					<path id="XMLID_918_" style="fill:#E0E0E0;" d="M98.585,312.971c0,1.295,0.969,1.786,2.165,1.096l20.042-11.571
						c1.196-0.69,2.165-2.3,2.165-3.595c0-1.295-0.969-1.786-2.165-1.095l-20.042,11.571
						C99.554,310.066,98.585,311.675,98.585,312.971z"/>
					<path id="XMLID_917_" style="fill:#FAFAFA;" d="M90.461,326.191v1.69c0,0.828,0.582,1.164,1.299,0.75l1.465-0.845
						c0.717-0.414,1.299-1.421,1.299-2.25l0-1.691c0-0.828-0.582-1.164-1.299-0.75l-1.464,0.846
						C91.042,324.355,90.461,325.362,90.461,326.191z"/>
					<path id="XMLID_916_" style="fill:#E0E0E0;" d="M98.585,322.345c0,1.295,0.969,1.786,2.165,1.095l20.042-11.571
						c1.196-0.69,2.165-2.3,2.165-3.595c0-1.295-0.969-1.786-2.165-1.095L100.75,318.75C99.554,319.44,98.585,321.05,98.585,322.345
						z"/>
					<path id="XMLID_915_" style="fill:#FAFAFA;" d="M90.461,335.561v1.69c0,0.828,0.582,1.164,1.299,0.75l1.465-0.846
						c0.717-0.414,1.299-1.421,1.299-2.25l0-1.691c0-0.828-0.582-1.164-1.299-0.75l-1.464,0.846
						C91.042,333.725,90.461,334.733,90.461,335.561z"/>
					<path id="XMLID_914_" style="fill:#E0E0E0;" d="M98.585,331.716c0,1.295,0.969,1.786,2.165,1.095l20.042-11.571
						c1.196-0.69,2.165-2.3,2.165-3.595c0-1.295-0.969-1.786-2.165-1.095L100.75,328.12C99.554,328.81,98.585,330.42,98.585,331.716
						z"/>
				</g>
			</g>
		</g>
		<g id="XMLID_900_">
			<path id="XMLID_910_" style="fill:#E0E0E0;" d="M236.866,195.761v2.319c0,1.381,0.967,1.937,2.161,1.242l56.609-32.946
				c1.193-0.694,2.161-2.377,2.161-3.757l0-2.036c0-1.381-0.969-1.94-2.165-1.25l-56.601,32.678
				C237.835,192.702,236.866,194.38,236.866,195.761z"/>
			<g id="XMLID_901_">
				<path id="XMLID_909_" style="fill:#EBEBEB;" d="M239.031,206.083l64.726-37.369c1.196-0.69,2.165-0.2,2.165,1.095
					c0,1.295-0.969,2.905-2.165,3.595l-64.725,37.369c-1.196,0.69-2.165,0.2-2.166-1.095
					C236.866,208.383,237.835,206.773,239.031,206.083z"/>
				<path id="XMLID_908_" style="fill:#EBEBEB;" d="M239.031,215.458l64.726-37.369c1.196-0.69,2.165-0.2,2.165,1.095
					c0,1.295-0.969,2.905-2.165,3.595l-64.725,37.369c-1.196,0.69-2.165,0.2-2.166-1.095
					C236.866,217.758,237.835,216.149,239.031,215.458z"/>
				<path id="XMLID_907_" style="fill:#EBEBEB;" d="M239.031,224.833l64.726-37.369c1.196-0.69,2.165-0.2,2.165,1.095
					c0,1.295-0.969,2.905-2.165,3.595l-64.725,37.369c-1.196,0.69-2.165,0.2-2.166-1.095
					C236.866,227.133,237.835,225.524,239.031,224.833z"/>
				<path id="XMLID_906_" style="fill:#EBEBEB;" d="M239.031,234.209l64.726-37.369c1.196-0.69,2.165-0.2,2.165,1.095
					c0,1.295-0.969,2.905-2.165,3.595l-64.725,37.369c-1.196,0.69-2.165,0.2-2.166-1.095
					C236.866,236.508,237.835,234.899,239.031,234.209z"/>
				<path id="XMLID_905_" style="fill:#EBEBEB;" d="M239.031,243.584l64.726-37.369c1.196-0.69,2.165-0.2,2.165,1.095
					c0,1.295-0.969,2.905-2.165,3.595l-64.725,37.369c-1.196,0.69-2.165,0.2-2.166-1.095
					C236.866,245.884,237.835,244.274,239.031,243.584z"/>
				<path id="XMLID_904_" style="fill:#EBEBEB;" d="M239.031,252.959l64.726-37.369c1.196-0.69,2.165-0.2,2.165,1.095
					c0,1.295-0.969,2.905-2.165,3.595l-64.725,37.369c-1.196,0.69-2.165,0.2-2.166-1.095
					C236.866,255.259,237.835,253.649,239.031,252.959z"/>
				<path id="XMLID_903_" style="fill:#EBEBEB;" d="M239.031,262.334l64.726-37.369c1.196-0.69,2.165-0.2,2.165,1.095
					s-0.969,2.905-2.165,3.595l-64.725,37.369c-1.196,0.69-2.165,0.2-2.166-1.095C236.866,264.634,237.835,263.025,239.031,262.334z
					"/>
				<path id="XMLID_902_" style="fill:#EBEBEB;" d="M239.031,271.709l64.726-37.369c1.196-0.69,2.165-0.2,2.165,1.095
					s-0.969,2.905-2.165,3.595l-64.725,37.369c-1.196,0.69-2.165,0.2-2.166-1.095C236.866,274.009,237.835,272.4,239.031,271.709z"
					/>
			</g>
		</g>
		<g id="XMLID_896_">
			<path id="XMLID_899_" style="fill:#F0F0F0;" d="M141.542,248.296l85.037-49.094c1.196-0.69,2.165-0.131,2.165,1.25v84.118
				c0,1.381-0.969,3.06-2.165,3.75l-85.034,49.095c-1.196,0.69-2.165,0.131-2.165-1.25l-0.002-84.12
				C139.377,250.665,140.346,248.986,141.542,248.296z"/>
			<path id="XMLID_898_" style="fill:#E0E0E0;" d="M205.022,246.919l-14.207,25.146l9.985,12.944l-32.989-28.426l-28.433,61.558
				l0.001,18.024c0,1.381,0.969,1.94,2.165,1.25l85.034-49.095c1.196-0.69,2.165-2.369,2.165-3.75v-15.963L205.022,246.919z"/>
			<path id="XMLID_897_" style="fill:#E0E0E0;" d="M208.43,221.043c3.537-2.043,6.404-0.387,6.404,3.697
				c0,4.085-2.867,9.052-6.404,11.094c-3.537,2.043-6.404,0.387-6.404-3.697C202.026,228.053,204.894,223.086,208.43,221.043z"/>
		</g>
		<g id="XMLID_888_">
			<path id="XMLID_895_" style="fill:#E0E0E0;" d="M84.675,206.083L303.756,79.594c1.196-0.69,2.165-0.131,2.165,1.25l-0.001,23.144
				c0,1.381-0.969,3.06-2.165,3.75L84.675,234.225c-1.196,0.69-2.165,0.131-2.165-1.25l0-23.142
				C82.51,208.452,83.479,206.773,84.675,206.083z"/>
			<g id="XMLID_889_">
				<path id="XMLID_894_" style="fill:#FAFAFA;" d="M224.68,137.304l0.001,4.036c0,0.825,0.585,1.162,1.299,0.75l63.693-36.773
					l0-7.036l-63.693,36.773C225.264,135.467,224.68,136.479,224.68,137.304z"/>
				<path id="XMLID_893_" style="fill:#EBEBEB;" d="M296.498,94.34c0.717-0.414,1.299-0.078,1.299,0.75v4.036
					c0,0.828-0.582,1.836-1.299,2.25l-6.825,3.941l0-7.036L296.498,94.34z"/>
				<path id="XMLID_890_" style="fill:#FAFAFA;" d="M295.993,99.874l-0.762-0.237c0.078-0.323,0.122-0.655,0.122-0.981
					c0-0.779-0.253-1.371-0.694-1.626c-0.328-0.189-0.722-0.17-1.11,0.054c-0.853,0.493-1.521,1.883-1.521,3.166
					c0,0.779,0.253,1.371,0.694,1.626c0.149,0.086,0.312,0.129,0.483,0.129c0.203,0,0.416-0.061,0.627-0.183
					c0.513-0.296,0.956-0.919,1.23-1.646l0.763,0.238c0.028,0.009,0.056,0.013,0.084,0.013c0.121,0,0.232-0.077,0.27-0.199
					C296.225,100.079,296.142,99.92,295.993,99.874z M293.55,101.333c-0.211,0.122-0.394,0.141-0.545,0.053
					c-0.254-0.147-0.412-0.582-0.412-1.137c0-1.063,0.567-2.289,1.239-2.677c0.124-0.071,0.238-0.108,0.342-0.108
					c0.073,0,0.141,0.018,0.203,0.054c0.254,0.147,0.411,0.582,0.411,1.137C294.788,99.719,294.221,100.945,293.55,101.333z"/>
			</g>
		</g>
		<g id="XMLID_491_">
			<path id="XMLID_628_" style="fill:#EBEBEB;" d="M139.377,209.833v27.832c0,1.381,0.969,1.94,2.165,1.25l162.214-93.653
				c1.196-0.69,2.165-2.369,2.165-3.75l0-27.833c0-1.381-0.969-1.94-2.165-1.25l-162.214,93.654
				C140.346,206.773,139.377,208.452,139.377,209.833z"/>
		</g>
	</g>
	<g id="XMLID_449_">
		<path id="XMLID_16352_" style="fill:#27DEBF;" d="M121.099,412.484c-1.121-0.648-2.031-2.292-2.031-3.673l-0.001-206.026
			c0-1.381,0.969-3.06,2.165-3.75L356.554,63.181c1.196-0.69,3.074-0.725,4.196-0.077c1.122,0.648,2.031,2.292,2.031,3.673
			l0.001,206.026c0,1.381-0.969,3.06-2.165,3.75L125.294,412.406C124.099,413.097,122.22,413.131,121.099,412.484z"/>
		<path id="XMLID_16351_" style="fill:#455A64;" d="M362.757,66.423c-0.15-1.12-1.06-1.53-2.14-0.9L125.293,201.378
			c-0.59,0.35-1.13,0.94-1.53,1.62l-4.06-2.35c0.4-0.68,0.93-1.26,1.53-1.61L356.557,63.183c1.19-0.69,3.07-0.73,4.19-0.08
			C361.777,63.703,362.627,65.123,362.757,66.423z"/>
		<path id="XMLID_16350_" style="fill:#F0F0F0;" d="M124.883,412.594c-0.03,0.01-0.06,0.03-0.09,0.03
			c-0.07,0.04-0.14,0.06-0.21,0.08c-0.05,0.02-0.1,0.04-0.16,0.05c-0.09,0.03-0.19,0.06-0.3,0.07c-0.06,0.02-0.13,0.04-0.2,0.04
			c-0.1,0.02-0.22,0.04-0.33,0.05c-0.89,0.1-1.82-0.04-2.49-0.43c-1.13-0.65-2.03-2.29-2.03-3.67l-0.01-180.385l4.07,2.35v180.375
			c0,0.98,0.49,1.55,1.2,1.55c0.1,0,0.19-0.01,0.29-0.04c0.02,0,0.03,0,0.05-0.01C124.743,412.644,124.813,412.624,124.883,412.594z
			"/>
		<path id="XMLID_16348_" style="fill:#263238;" d="M123.763,202.998c-0.39,0.67-0.63,1.44-0.63,2.13v25.65l-4.07-2.35v-25.64
			c0-0.09,0-0.17,0.01-0.26c0.02-0.18,0.05-0.36,0.09-0.54c0.11-0.45,0.3-0.92,0.54-1.34L123.763,202.998z"/>
		<path id="XMLID_16312_" style="fill:#37474F;" d="M362.777,66.773v11.57l-172.494,99.585c-1.19,0.69-2.16,0.13-2.16-1.25v-4.38
			c0-1.38-0.97-1.94-2.17-1.25l-52.53,30.33c-1.2,0.69-2.17,2.37-2.17,3.75v4.38c0,1.38-0.97,3.06-2.16,3.75l-5.96,3.44v-11.57
			c0-1.38,0.97-3.06,2.16-3.75L360.617,65.523C361.807,64.833,362.777,65.393,362.777,66.773z"/>
		<path id="XMLID_16308_" style="fill:#FAFAFA;" d="M362.787,272.798c0,1.38-0.97,3.06-2.17,3.75L125.293,412.404
			c-1.19,0.69-2.16,0.13-2.16-1.25V216.698l5.96-3.44c1.19-0.69,3.13-11.19,4.33-11.88l51.651-29.823
			c1.2-0.69,4.019,7.063,5.209,6.373l172.494-99.585v14.08L362.787,272.798z"/>
		<path id="XMLID_16294_" style="fill:#E6E6E6;" d="M362.777,78.343v14.08L123.133,230.778v-14.08l4.451-2.578
			c1.19-0.69,1.59-1.739,2.16-3.75l1.509-5.242c0.476-1.82,0.97-3.06,2.17-3.75l51.651-29.823c1.2-0.69,2.136-0.766,3.049,0.743
			l1.852,3.361c0.679,1.174,1.019,1.864,2.209,1.174L362.777,78.343z"/>
		<g id="XMLID_15732_">
			<path id="XMLID_16291_" style="fill:#FFFFFF;" d="M352.626,74.029c1.505-0.869,2.724-0.164,2.724,1.573
				c0,1.737-1.22,3.85-2.724,4.719c-1.505,0.869-2.724,0.164-2.724-1.573C349.902,77.01,351.122,74.897,352.626,74.029z"/>
			<path id="XMLID_16262_" style="fill:#FFFFFF;" d="M342.818,79.684c1.505-0.869,2.724-0.164,2.724,1.573
				c0,1.737-1.22,3.85-2.724,4.719c-1.505,0.869-2.724,0.164-2.724-1.573C340.094,82.665,341.313,80.553,342.818,79.684z"/>
			<path id="XMLID_15733_" style="fill:#FFFFFF;" d="M333.009,85.339c1.505-0.869,2.724-0.165,2.724,1.573
				c0,1.737-1.22,3.85-2.724,4.719c-1.505,0.869-2.724,0.165-2.724-1.573C330.285,88.32,331.505,86.208,333.009,85.339z"/>
		</g>
		<path id="XMLID_15713_" style="opacity:0.5;fill:#455A64;" d="M133.064,217.713l-3.399,1.962l1.296-2.492
			c0.114-0.219,0.126-0.491,0.026-0.609c-0.099-0.119-0.272-0.035-0.386,0.183l-1.844,3.547c-0.002,0.004-0.003,0.009-0.005,0.014
			c-0.02,0.041-0.036,0.085-0.049,0.131c-0.005,0.015-0.011,0.028-0.015,0.043c-0.015,0.061-0.024,0.123-0.024,0.183
			c0,0.061,0.009,0.112,0.024,0.156c0.004,0.011,0.011,0.016,0.015,0.026c0.014,0.03,0.029,0.057,0.049,0.074
			c0.002,0.002,0.003,0.006,0.005,0.008l1.844,1.418c0.052,0.04,0.116,0.037,0.18,0c0.076-0.044,0.152-0.136,0.206-0.263
			c0.1-0.233,0.088-0.492-0.026-0.579l-1.296-0.996l3.399-1.962c0.151-0.087,0.273-0.346,0.273-0.579
			S133.216,217.626,133.064,217.713z"/>
		<path id="XMLID_15710_" style="opacity:0.5;fill:#455A64;" d="M135.904,216.074l3.399-1.962l-1.296-0.996
			c-0.114-0.087-0.126-0.346-0.026-0.579c0.099-0.233,0.272-0.349,0.386-0.263l1.844,1.418c0.002,0.002,0.003,0.006,0.005,0.008
			c0.02,0.018,0.035,0.044,0.049,0.074c0.004,0.01,0.011,0.015,0.015,0.026c0.015,0.043,0.024,0.095,0.024,0.156
			c0,0.061-0.009,0.123-0.024,0.183c-0.004,0.015-0.011,0.028-0.015,0.043c-0.014,0.046-0.029,0.09-0.049,0.131
			c-0.002,0.004-0.003,0.009-0.005,0.014l-1.844,3.547c-0.052,0.1-0.116,0.171-0.18,0.208c-0.076,0.044-0.152,0.039-0.206-0.025
			c-0.1-0.118-0.088-0.39,0.026-0.609l1.296-2.492l-3.399,1.962c-0.151,0.087-0.273-0.03-0.273-0.263
			C135.63,216.42,135.752,216.161,135.904,216.074z"/>
		<path id="XMLID_15709_" style="opacity:0.5;fill:#455A64;" d="M147.053,206.287c-0.021-0.205-0.199-0.179-0.29,0.043l-0.466,1.138
			c-0.793-0.086-1.756,0.689-2.405,2.064c-0.842,1.782-0.842,3.891,0,4.701c0.421,0.405,0.974,0.41,1.527,0.09
			c0.553-0.319,1.105-0.962,1.526-1.853c0.107-0.226,0.107-0.493,0-0.595c-0.107-0.103-0.28-0.003-0.387,0.223
			c-0.628,1.329-1.651,1.921-2.28,1.316c-0.629-0.605-0.629-2.18,0-3.51c0.447-0.946,1.091-1.507,1.652-1.541l-0.351,0.858
			c-0.091,0.223-0.008,0.43,0.135,0.337l1.386-0.905c0.097-0.064,0.169-0.24,0.155-0.38L147.053,206.287z"/>
		<path id="XMLID_15708_" style="opacity:0.5;fill:#455A64;" d="M183.584,177.982l1.239-2.623c0.146-0.31,0.146-0.676,0-0.816
			c-0.146-0.141-0.384-0.004-0.53,0.306l-1.239,2.623l-1.239-1.192c-0.146-0.141-0.384-0.004-0.53,0.306s-0.146,0.676,0,0.816
			l1.239,1.192l-1.239,2.623c-0.146,0.31-0.146,0.675,0,0.816c0.073,0.071,0.169,0.072,0.265,0.016
			c0.096-0.055,0.192-0.167,0.265-0.322l1.239-2.623l1.239,1.192c0.073,0.07,0.169,0.072,0.265,0.016
			c0.096-0.055,0.192-0.167,0.265-0.322c0.146-0.31,0.146-0.675,0-0.816L183.584,177.982z"/>
		<path id="XMLID_15707_" style="fill:#FAFAFA;" d="M151.564,209.511v-4.381c0-1.381,0.969-3.06,2.165-3.75L348.43,89.027
			c1.196-0.69,2.165-0.131,2.165,1.25l0,4.381c0,1.381-0.969,3.06-2.165,3.75L153.729,210.761
			C152.533,211.452,151.564,210.892,151.564,209.511z"/>
		<path id="XMLID_15681_" style="fill:none;stroke:#E0E0E0;stroke-width:0.75;stroke-miterlimit:10;" d="M347.168,91.342
			l0.569,1.208c0.036,0.076,0.105,0.103,0.185,0.073l1.271-0.488c0.202-0.077,0.283,0.207,0.136,0.481l-0.92,1.727
			c-0.058,0.109-0.085,0.233-0.071,0.331l0.217,1.563c0.035,0.248-0.177,0.575-0.357,0.552l-1.137-0.141
			c-0.072-0.009-0.157,0.041-0.229,0.132l-1.137,1.454c-0.181,0.231-0.392,0.148-0.357-0.14l0.217-1.814
			c0.014-0.114-0.013-0.208-0.071-0.25l-0.92-0.665c-0.146-0.106-0.065-0.483,0.137-0.639l1.271-0.98
			c0.08-0.062,0.15-0.169,0.185-0.287l0.569-1.865C346.817,91.301,347.078,91.151,347.168,91.342z"/>
		<g id="XMLID_475_" style="opacity:0.5;">
			<g id="XMLID_15677_">
				<path id="XMLID_15678_" style="fill:#455A64;" d="M353.148,88.493c-0.26,0-0.512-0.134-0.65-0.375
					c-0.207-0.359-0.084-0.817,0.274-1.024l6.093-3.518c0.36-0.208,0.817-0.084,1.024,0.274c0.207,0.359,0.084,0.817-0.274,1.024
					l-6.093,3.518C353.404,88.461,353.275,88.493,353.148,88.493z"/>
			</g>
			<g id="XMLID_15674_">
				<path id="XMLID_15676_" style="fill:#455A64;" d="M353.148,92.012c-0.26,0-0.512-0.134-0.65-0.375
					c-0.207-0.359-0.084-0.817,0.274-1.024l6.093-3.518c0.36-0.209,0.817-0.084,1.024,0.274c0.207,0.359,0.084,0.817-0.274,1.025
					l-6.093,3.518C353.404,91.98,353.275,92.012,353.148,92.012z"/>
			</g>
			<g id="XMLID_476_">
				<path id="XMLID_477_" style="fill:#455A64;" d="M353.148,95.531c-0.26,0-0.512-0.134-0.65-0.375
					c-0.207-0.359-0.084-0.817,0.274-1.024l6.093-3.518c0.36-0.209,0.817-0.084,1.024,0.274c0.207,0.359,0.084,0.817-0.274,1.024
					l-6.093,3.518C353.404,95.499,353.275,95.531,353.148,95.531z"/>
			</g>
		</g>
		<polygon id="XMLID_474_" style="fill:#E0E0E0;" points="123.133,216.698 123.133,230.778 119.063,228.428 119.063,214.358 		"/>
		<g id="XMLID_744_">
			<path id="XMLID_887_" style="fill:#F0F0F0;" d="M133.415,267.048l44.412-25.643c1.196-0.69,2.165-0.131,2.165,1.25v126.332
				c0,1.381-0.969,3.06-2.165,3.75l-44.413,25.641c-1.196,0.69-2.165,0.131-2.165-1.25l0-126.331
				C131.25,269.418,132.219,267.739,133.415,267.048z"/>
			<g id="XMLID_801_">
				<path id="XMLID_886_" style="fill:#E0E0E0;" d="M141.538,271.738l28.166-16.262c1.196-0.69,2.165-0.2,2.165,1.096
					c0,1.295-0.969,2.905-2.165,3.596l-28.167,16.262c-1.196,0.69-2.165,0.2-2.165-1.096
					C139.373,274.038,140.342,272.428,141.538,271.738z"/>
				<g id="XMLID_817_">
					<path id="XMLID_885_" style="fill:#FAFAFA;" d="M139.372,283.869v1.691c0,0.828,0.582,1.164,1.299,0.75l1.465-0.846
						c0.717-0.414,1.299-1.421,1.299-2.25l0-1.691c0-0.828-0.582-1.164-1.299-0.75l-1.464,0.846
						C139.954,282.034,139.372,283.041,139.372,283.869z"/>
					<path id="XMLID_884_" style="fill:#E0E0E0;" d="M147.496,280.024c0,1.295,0.969,1.786,2.165,1.095l20.042-11.571
						c1.196-0.69,2.165-2.3,2.165-3.595c0-1.295-0.969-1.785-2.165-1.095l-20.042,11.571
						C148.466,277.119,147.496,278.728,147.496,280.024z"/>
					<path id="XMLID_883_" style="fill:#FAFAFA;" d="M139.372,293.26v1.69c0,0.828,0.582,1.164,1.299,0.75l1.465-0.846
						c0.717-0.414,1.299-1.421,1.299-2.25l0-1.691c0-0.828-0.582-1.164-1.299-0.75l-1.464,0.846
						C139.954,291.424,139.372,292.431,139.372,293.26z"/>
					<path id="XMLID_882_" style="fill:#E0E0E0;" d="M147.496,289.414c0,1.295,0.969,1.786,2.165,1.096l20.042-11.571
						c1.196-0.69,2.165-2.3,2.165-3.595c0-1.295-0.969-1.786-2.165-1.095l-20.042,11.571
						C148.466,286.509,147.496,288.119,147.496,289.414z"/>
					<path id="XMLID_881_" style="fill:#FAFAFA;" d="M139.372,302.634v1.69c0,0.828,0.582,1.164,1.299,0.75l1.465-0.846
						c0.717-0.414,1.299-1.421,1.299-2.25l0-1.691c0-0.828-0.582-1.164-1.299-0.75l-1.464,0.846
						C139.954,300.798,139.372,301.806,139.372,302.634z"/>
					<path id="XMLID_880_" style="fill:#E0E0E0;" d="M147.496,298.789c0,1.295,0.969,1.786,2.165,1.095l20.042-11.571
						c1.196-0.69,2.165-2.3,2.165-3.595c0-1.295-0.969-1.786-2.165-1.095l-20.042,11.571
						C148.466,295.883,147.496,297.493,147.496,298.789z"/>
					<path id="XMLID_879_" style="fill:#FAFAFA;" d="M139.372,312.004v1.69c0,0.828,0.582,1.164,1.299,0.75l1.465-0.846
						c0.717-0.414,1.299-1.421,1.299-2.25l0-1.691c0-0.828-0.582-1.164-1.299-0.75l-1.464,0.846
						C139.954,310.168,139.372,311.176,139.372,312.004z"/>
					<path id="XMLID_878_" style="fill:#E0E0E0;" d="M147.496,308.159c0,1.295,0.969,1.786,2.165,1.095l20.042-11.571
						c1.196-0.69,2.165-2.3,2.165-3.595c0-1.295-0.969-1.786-2.165-1.095l-20.042,11.571
						C148.466,305.254,147.496,306.863,147.496,308.159z"/>
				</g>
			</g>
			<g id="XMLID_749_">
				<path id="XMLID_800_" style="fill:#E0E0E0;" d="M141.366,323.426l28.166-16.262c1.196-0.69,2.165-0.2,2.165,1.096
					c0,1.295-0.969,2.905-2.165,3.596l-28.167,16.262c-1.196,0.69-2.165,0.2-2.165-1.096
					C139.201,325.727,140.171,324.117,141.366,323.426z"/>
				<g id="XMLID_750_">
					<path id="XMLID_799_" style="fill:#FAFAFA;" d="M139.2,335.558v1.69c0,0.828,0.582,1.164,1.299,0.75l1.465-0.845
						c0.717-0.414,1.299-1.421,1.299-2.25l0-1.691c0-0.828-0.582-1.164-1.299-0.75l-1.464,0.846
						C139.782,333.722,139.2,334.729,139.2,335.558z"/>
					<path id="XMLID_798_" style="fill:#E0E0E0;" d="M147.324,331.712c0,1.295,0.969,1.786,2.165,1.096l20.042-11.571
						c1.196-0.69,2.165-2.3,2.165-3.595c0-1.295-0.969-1.786-2.165-1.095l-20.042,11.571
						C148.294,328.807,147.324,330.417,147.324,331.712z"/>
					<path id="XMLID_797_" style="fill:#FAFAFA;" d="M139.2,344.948v1.69c0,0.828,0.582,1.164,1.299,0.75l1.465-0.846
						c0.717-0.414,1.299-1.421,1.299-2.25l0-1.691c0-0.828-0.582-1.164-1.299-0.75l-1.464,0.846
						C139.782,343.112,139.2,344.12,139.2,344.948z"/>
					<path id="XMLID_796_" style="fill:#E0E0E0;" d="M147.324,341.103c0,1.295,0.969,1.786,2.165,1.096l20.042-11.571
						c1.196-0.69,2.165-2.3,2.165-3.595c0-1.295-0.969-1.785-2.165-1.095l-20.042,11.571
						C148.294,338.198,147.324,339.807,147.324,341.103z"/>
					<path id="XMLID_795_" style="fill:#FAFAFA;" d="M139.2,354.323v1.69c0,0.828,0.582,1.164,1.299,0.75l1.465-0.846
						c0.717-0.414,1.299-1.421,1.299-2.25l0-1.691c0-0.828-0.582-1.164-1.299-0.75l-1.464,0.846
						C139.782,352.487,139.2,353.494,139.2,354.323z"/>
					<path id="XMLID_786_" style="fill:#E0E0E0;" d="M147.324,350.477c0,1.295,0.969,1.786,2.165,1.095l20.042-11.571
						c1.196-0.69,2.165-2.3,2.165-3.595c0-1.295-0.969-1.786-2.165-1.095l-20.042,11.571
						C148.294,347.572,147.324,349.182,147.324,350.477z"/>
					<path id="XMLID_755_" style="fill:#FAFAFA;" d="M139.2,363.693v1.691c0,0.828,0.582,1.164,1.299,0.75l1.465-0.846
						c0.717-0.414,1.299-1.421,1.299-2.25l0-1.691c0-0.828-0.582-1.164-1.299-0.75l-1.464,0.846
						C139.782,361.857,139.2,362.865,139.2,363.693z"/>
					<path id="XMLID_751_" style="fill:#E0E0E0;" d="M147.324,359.848c0,1.295,0.969,1.786,2.165,1.095l20.042-11.571
						c1.196-0.69,2.165-2.3,2.165-3.595c0-1.295-0.969-1.786-2.165-1.095l-20.042,11.571
						C148.294,356.942,147.324,358.552,147.324,359.848z"/>
				</g>
			</g>
		</g>
		<g id="XMLID_631_">
			<path id="XMLID_743_" style="fill:#E0E0E0;" d="M285.605,223.893v2.319c0,1.381,0.967,1.937,2.161,1.242l56.609-32.946
				c1.193-0.695,2.161-2.377,2.161-3.758l0-2.036c0-1.381-0.969-1.94-2.165-1.25l-56.601,32.678
				C286.575,220.833,285.605,222.512,285.605,223.893z"/>
			<g id="XMLID_636_">
				<path id="XMLID_742_" style="fill:#EBEBEB;" d="M287.77,234.215l64.726-37.369c1.196-0.69,2.165-0.2,2.165,1.095
					s-0.969,2.905-2.165,3.595l-64.725,37.369c-1.196,0.69-2.165,0.2-2.166-1.095C285.606,236.515,286.575,234.905,287.77,234.215z"
					/>
				<path id="XMLID_741_" style="fill:#EBEBEB;" d="M287.77,243.59l64.726-37.369c1.196-0.69,2.165-0.2,2.165,1.095
					s-0.969,2.905-2.165,3.595l-64.725,37.369c-1.196,0.69-2.165,0.2-2.166-1.095C285.606,245.89,286.575,244.281,287.77,243.59z"/>
				<path id="XMLID_716_" style="fill:#EBEBEB;" d="M287.77,252.965l64.726-37.369c1.196-0.69,2.165-0.2,2.165,1.095
					c0,1.295-0.969,2.905-2.165,3.595l-64.725,37.369c-1.196,0.69-2.165,0.2-2.166-1.095
					C285.606,255.265,286.575,253.656,287.77,252.965z"/>
				<path id="XMLID_714_" style="fill:#EBEBEB;" d="M287.77,262.341l64.726-37.369c1.196-0.69,2.165-0.2,2.165,1.095
					c0,1.295-0.969,2.905-2.165,3.595l-64.725,37.369c-1.196,0.69-2.165,0.2-2.166-1.095
					C285.606,264.64,286.575,263.031,287.77,262.341z"/>
				<path id="XMLID_713_" style="fill:#EBEBEB;" d="M287.77,271.716l64.726-37.369c1.196-0.69,2.165-0.2,2.165,1.095
					c0,1.295-0.969,2.905-2.165,3.595l-64.725,37.369c-1.196,0.69-2.165,0.2-2.166-1.095
					C285.606,274.016,286.575,272.406,287.77,271.716z"/>
				<path id="XMLID_685_" style="fill:#EBEBEB;" d="M287.77,281.091l64.726-37.369c1.196-0.69,2.165-0.2,2.165,1.095
					s-0.969,2.905-2.165,3.595l-64.725,37.369c-1.196,0.69-2.165,0.2-2.166-1.095C285.606,283.391,286.575,281.781,287.77,281.091z"
					/>
				<path id="XMLID_648_" style="fill:#EBEBEB;" d="M287.77,290.466l64.726-37.369c1.196-0.69,2.165-0.2,2.165,1.095
					c0,1.295-0.969,2.905-2.165,3.595l-64.725,37.369c-1.196,0.69-2.165,0.2-2.166-1.095
					C285.606,292.766,286.575,291.156,287.77,290.466z"/>
				<path id="XMLID_647_" style="fill:#EBEBEB;" d="M287.77,299.841l64.726-37.369c1.196-0.69,2.165-0.2,2.165,1.095
					s-0.969,2.905-2.165,3.595l-64.725,37.369c-1.196,0.69-2.165,0.2-2.166-1.095C285.606,302.141,286.575,300.532,287.77,299.841z"
					/>
			</g>
		</g>
		<g id="XMLID_505_">
			<path id="XMLID_630_" style="fill:#F0F0F0;" d="M190.281,276.428l85.036-49.094c1.196-0.69,2.165-0.131,2.165,1.25v84.118
				c0,1.381-0.969,3.06-2.165,3.75l-85.034,49.095c-1.196,0.69-2.165,0.131-2.165-1.25l-0.002-84.119
				C188.116,278.797,189.085,277.118,190.281,276.428z"/>
			<path id="XMLID_507_" style="fill:#E0E0E0;" d="M253.761,275.051l-14.207,25.146l9.985,12.944l-32.989-28.426l-28.433,61.558
				l0.001,18.024c0,1.381,0.969,1.94,2.165,1.25l85.034-49.095c1.196-0.69,2.165-2.369,2.165-3.75V296.74L253.761,275.051z"/>
			<path id="XMLID_506_" style="fill:#E0E0E0;" d="M257.17,249.175c3.537-2.043,6.404-0.387,6.404,3.697
				c0,4.085-2.867,9.052-6.404,11.094c-3.537,2.043-6.404,0.387-6.404-3.697S253.633,251.218,257.17,249.175z"/>
		</g>
		<g id="XMLID_494_">
			<path id="XMLID_504_" style="fill:#E0E0E0;" d="M133.414,234.215l219.081-126.489c1.196-0.69,2.165-0.131,2.165,1.25
				l-0.001,23.144c0,1.381-0.969,3.06-2.165,3.75l-219.08,126.487c-1.196,0.69-2.165,0.131-2.165-1.25l0-23.142
				C131.249,236.584,132.219,234.905,133.414,234.215z"/>
			<g id="XMLID_495_">
				<path id="XMLID_503_" style="fill:#FAFAFA;" d="M273.419,165.436l0.001,4.036c0,0.825,0.585,1.162,1.299,0.75l63.693-36.773
					l0-7.036l-63.693,36.773C274.004,163.598,273.419,164.611,273.419,165.436z"/>
				<path id="XMLID_502_" style="fill:#EBEBEB;" d="M345.237,122.472c0.717-0.414,1.299-0.078,1.299,0.75v4.036
					c0,0.828-0.582,1.836-1.299,2.25l-6.825,3.941l0-7.036L345.237,122.472z"/>
				<path id="XMLID_499_" style="fill:#FAFAFA;" d="M344.732,128.006l-0.762-0.237c0.078-0.323,0.122-0.655,0.122-0.981
					c0-0.779-0.253-1.371-0.694-1.626c-0.328-0.189-0.722-0.17-1.11,0.054c-0.853,0.493-1.521,1.883-1.521,3.166
					c0,0.779,0.253,1.371,0.694,1.626c0.149,0.086,0.312,0.129,0.483,0.129c0.203,0,0.416-0.061,0.627-0.183
					c0.513-0.296,0.956-0.919,1.23-1.646l0.763,0.238c0.028,0.009,0.056,0.013,0.084,0.013c0.12,0,0.232-0.077,0.27-0.199
					C344.964,128.21,344.881,128.052,344.732,128.006z M342.289,129.465c-0.211,0.122-0.394,0.141-0.545,0.053
					c-0.254-0.147-0.412-0.582-0.412-1.137c0-1.063,0.567-2.289,1.239-2.677c0.124-0.071,0.238-0.107,0.342-0.107
					c0.073,0,0.141,0.018,0.203,0.054c0.254,0.147,0.411,0.582,0.411,1.137C343.528,127.851,342.961,129.077,342.289,129.465z"/>
			</g>
		</g>
		<g id="XMLID_490_">
			<path id="XMLID_493_" style="fill:#EBEBEB;" d="M188.116,237.965v27.832c0,1.381,0.969,1.94,2.165,1.25l162.214-93.653
				c1.196-0.69,2.165-2.369,2.165-3.75l0-27.833c0-1.381-0.969-1.94-2.165-1.25l-162.214,93.654
				C189.085,234.905,188.116,236.584,188.116,237.965z"/>
		</g>
	</g>
	<g id="Plants_2_">
		<g id="Plants_19_">
			<g id="XMLID_17473_">
				<g id="XMLID_17483_">
					<path id="XMLID_17485_" style="fill:#27DEBF;" d="M169.939,415.005c-0.265-6.328-5.391-19.245-12.303-27.186
						c-6.911-7.942-17.487-13.518-24.717-10.701c-6.733,2.623-5.618,11.553,2.919,17.144c8.536,5.591,21.307,12.529,25.381,22.642
						l8.175,12.274L169.939,415.005z"/>
					<path id="XMLID_17484_" style="opacity:0.1;" d="M169.939,415.005c-0.265-6.328-5.391-19.245-12.303-27.186
						c-6.911-7.942-17.487-13.518-24.717-10.701c-6.733,2.623-5.618,11.553,2.919,17.144c8.536,5.591,21.307,12.529,25.381,22.642
						l8.175,12.274L169.939,415.005z"/>
				</g>
				<g id="XMLID_17480_">
					<path id="XMLID_17481_" style="fill:#FFFFFF;" d="M170.768,423.645c-0.202-0.008-0.383-0.149-0.432-0.354
						c-5.143-21.425-23.354-38.252-33.976-41.693c-0.243-0.079-0.376-0.34-0.298-0.583c0.078-0.242,0.334-0.38,0.583-0.298
						c10.824,3.507,29.37,20.608,34.59,42.358c0.06,0.248-0.093,0.497-0.341,0.557C170.852,423.642,170.81,423.646,170.768,423.645z
						"/>
				</g>
			</g>
			<g id="XMLID_17462_">
				<g id="XMLID_17465_">
					<path id="XMLID_17472_" style="fill:#27DEBF;" d="M168.126,437.607c-1.166-3.515-5.756-9.203-12.987-13.758
						c-7.999-5.039-17.94-7.093-20.383-11.173c-2.935-4.901,1.095-9.817,9.122-9.161c8.027,0.656,22.524,10.963,25.456,27.273
						L168.126,437.607z"/>
				</g>
				<g id="XMLID_17463_">
					<path id="XMLID_17464_" style="fill:#FFFFFF;" d="M169.515,433.81c-0.176-0.007-0.34-0.114-0.411-0.289
						c-7.4-18.229-21.792-24.133-28.367-24.709c-0.254-0.022-0.443-0.247-0.421-0.501c0.022-0.255,0.237-0.443,0.501-0.421
						c7.271,0.636,21.591,6.676,29.145,25.283c0.096,0.236-0.019,0.507-0.255,0.603C169.644,433.801,169.579,433.812,169.515,433.81
						z"/>
				</g>
			</g>
		</g>
		<g id="Plants_20_">
			<g id="XMLID_17427_">
				<g id="XMLID_17432_">
					<path id="XMLID_17461_" style="fill:#27DEBF;" d="M406.219,271.925c0,0,1.385-12.183,7.445-21.639
						c6.06-9.456,14.388-15.357,22.157-15.972c7.77-0.615,14.045,6.534,5.732,11.443c-8.313,4.909-23.083,9.918-29.88,28.279
						L406.219,271.925z"/>
					<path id="XMLID_17433_" style="opacity:0.1;" d="M406.219,271.925c0,0,1.385-12.183,7.445-21.639
						c6.06-9.456,14.388-15.357,22.157-15.972c7.77-0.615,14.045,6.534,5.732,11.443c-8.313,4.909-23.083,9.918-29.88,28.279
						L406.219,271.925z"/>
				</g>
				<g id="XMLID_17428_">
					<path id="XMLID_17429_" style="fill:#FFFFFF;" d="M408.497,268.761c-0.028-0.005-0.055-0.013-0.082-0.024
						c-0.212-0.086-0.315-0.328-0.228-0.54c8.199-20.193,23.808-28.625,30.917-30.262c0.222-0.053,0.445,0.088,0.498,0.311
						c0.051,0.224-0.087,0.446-0.311,0.498c-6.963,1.603-22.264,9.889-30.335,29.765
						C408.88,268.694,408.686,268.796,408.497,268.761z"/>
				</g>
			</g>
			<g id="XMLID_17402_">
				<g id="XMLID_17417_">
					<g id="XMLID_17422_">
						<path id="XMLID_17424_" style="fill:#27DEBF;" d="M450.001,269c-0.704,1.586-2.435,2.412-4.046,3.061
							c-1.602,0.643-3.359,1.345-4.229,2.845c-1.754,3.029,1.125,7.288-0.757,10.238c-0.79,1.237-2.26,1.888-3.704,2.147
							c-1.2,0.225-2.423,0.223-3.64,0.325c-0.586-0.012-1.165-0.055-1.73-0.135c-1.67-0.243-3.482-0.321-5.012,0.534
							c-2.407,1.353-3.147,4.393-4.609,6.737c-1.753,2.807-4.853,4.644-8.109,5.087c-1.082,0.143-3.094,0.338-4.196-0.277
							c-0.087-0.048-0.158-0.092-0.228-0.145c-0.007-0.001-0.014-0.01-0.02-0.02c-0.151-0.171-0.342-0.388-0.423-0.506
							c-0.021-0.02-0.032-0.045-0.043-0.071c-0.426-1.571,0.27-3.206,0.298-4.828c0.003-0.103,0.004-0.198-0.002-0.294
							c-0.067-1.886-0.12-3.761-0.164-5.643c-0.088-3.462-0.127-6.93-0.103-10.395c0.024-2.25-0.247-4.714,0.705-6.833
							c1.055-2.331,3.676-2.383,4.667-4.67c0.397-0.912,0.608-1.889,0.992-2.811c1.146-2.704,3.924-4.648,6.864-4.792
							c4.576-0.233,8.684,3.473,13.255,3.136c1.184-0.093,2.337-0.453,3.504-0.668c3.708-0.694,7.992,0.361,10.077,3.498
							C450.216,265.832,450.638,267.561,450.001,269z"/>
					</g>
				</g>
				<g id="XMLID_17412_">
					<path id="XMLID_17416_" style="fill:#FFFFFF;" d="M408.879,291.611c-0.01-0.002-0.021-0.005-0.031-0.007
						c-0.208-0.055-0.332-0.27-0.276-0.478c6.324-23.726,31.322-27.155,37.171-26.733c0.212,0.017,0.376,0.202,0.361,0.417
						c-0.015,0.215-0.202,0.377-0.417,0.362c-5.721-0.413-30.174,2.942-36.361,26.156
						C409.273,291.526,409.077,291.647,408.879,291.611z"/>
				</g>
				<g id="XMLID_17407_">
					<path id="XMLID_17411_" style="fill:#FFFFFF;" d="M436.655,279.588c-0.076-0.014-0.148-0.05-0.206-0.109
						c-0.063-0.063-6.438-6.349-17.012-4.792c-0.213,0.028-0.412-0.116-0.444-0.329c-0.031-0.214,0.117-0.412,0.329-0.444
						c10.983-1.615,17.615,4.949,17.682,5.016c0.152,0.153,0.15,0.4-0.003,0.552C436.906,279.575,436.776,279.611,436.655,279.588z"
						/>
				</g>
			</g>
		</g>
	</g>
	<g id="XMLID_436_">
		<path id="XMLID_16497_" style="fill:#27DEBF;" d="M169.837,440.643c-1.121-0.648-2.031-2.292-2.031-3.673l-0.001-206.026
			c0-1.381,0.969-3.06,2.165-3.75L405.293,91.34c1.196-0.69,3.074-0.725,4.196-0.077s2.031,2.292,2.031,3.673l0.001,206.026
			c0,1.381-0.969,3.06-2.165,3.75L174.033,440.565C172.837,441.255,170.959,441.29,169.837,440.643z"/>
		<path id="XMLID_16385_" style="opacity:0.4;fill:#FFFFFF;" d="M411.496,94.582c-0.15-1.12-1.06-1.53-2.14-0.9L174.032,229.537
			c-0.59,0.35-1.13,0.94-1.53,1.62l-4.06-2.35c0.4-0.68,0.93-1.26,1.53-1.61L405.296,91.342c1.19-0.69,3.07-0.73,4.19-0.08
			C410.516,91.862,411.366,93.282,411.496,94.582z"/>
		<path id="XMLID_15230_" style="fill:#F0F0F0;" d="M173.622,440.753c-0.03,0.01-0.06,0.03-0.09,0.03
			c-0.07,0.04-0.14,0.06-0.21,0.08c-0.05,0.02-0.1,0.04-0.16,0.05c-0.09,0.03-0.19,0.06-0.3,0.07c-0.06,0.02-0.13,0.04-0.2,0.04
			c-0.1,0.02-0.22,0.04-0.33,0.05c-0.89,0.1-1.82-0.04-2.49-0.43c-1.13-0.65-2.03-2.29-2.03-3.67l-0.01-180.385l4.07,2.35v180.375
			c0,0.98,0.49,1.55,1.2,1.55c0.1,0,0.19-0.01,0.29-0.04c0.02,0,0.03,0,0.05-0.01C173.482,440.803,173.551,440.783,173.622,440.753z
			"/>
		<path id="XMLID_15482_" style="opacity:0.1;" d="M172.501,231.157c-0.39,0.67-0.63,1.44-0.63,2.13v25.65l-4.07-2.35v-25.64
			c0-0.09,0-0.17,0.01-0.26c0.02-0.18,0.05-0.36,0.09-0.54c0.11-0.45,0.3-0.92,0.54-1.34L172.501,231.157z"/>
		<path id="XMLID_16406_" style="fill:#27DEBF;" d="M411.516,94.932v11.57l-172.494,99.585c-1.19,0.69-2.16,0.13-2.16-1.25v-4.38
			c0-1.38-0.97-1.94-2.17-1.25l-52.53,30.33c-1.2,0.69-2.17,2.37-2.17,3.75v4.38c0,1.38-0.97,3.06-2.16,3.75l-5.96,3.44v-11.57
			c0-1.38,0.97-3.06,2.16-3.75L409.355,93.682C410.546,92.992,411.516,93.552,411.516,94.932z"/>
		<g id="XMLID_247_">
			<path id="XMLID_16408_" style="fill:#FAFAFA;" d="M411.526,300.957c0,1.38-0.97,3.06-2.17,3.75L174.032,440.563
				c-1.19,0.69-2.16,0.13-2.16-1.25V244.857l5.96-3.44c1.19-0.69,3.13-11.19,4.33-11.88l51.651-29.823
				c1.2-0.69,4.019,7.063,5.209,6.373l172.494-99.585v14.08L411.526,300.957z"/>
		</g>
		<g id="XMLID_489_">
			<path id="XMLID_248_" style="fill:#F0F0F0;" d="M182.16,295.204l44.412-25.643c1.196-0.69,2.165-0.131,2.165,1.25v126.332
				c0,1.381-0.969,3.06-2.165,3.75l-44.412,25.642c-1.196,0.69-2.165,0.131-2.165-1.25l0-126.331
				C179.995,297.573,180.964,295.895,182.16,295.204z"/>
			<g id="XMLID_269_">
				<path id="XMLID_249_" style="fill:#E0E0E0;" d="M190.283,299.894l28.166-16.262c1.196-0.69,2.165-0.2,2.165,1.096
					s-0.969,2.905-2.165,3.595l-28.167,16.262c-1.196,0.69-2.165,0.2-2.164-1.096C188.118,302.194,189.088,300.584,190.283,299.894z
					"/>
				<g id="XMLID_252_">
					<path id="XMLID_250_" style="fill:#27DEBF;" d="M188.117,312.025v1.691c0,0.828,0.582,1.164,1.299,0.75l1.465-0.845
						c0.717-0.414,1.299-1.421,1.299-2.25l0-1.691c0-0.828-0.582-1.164-1.299-0.75l-1.464,0.846
						C188.699,310.19,188.117,311.197,188.117,312.025z"/>
					<path id="XMLID_251_" style="fill:#E0E0E0;" d="M196.242,308.18c0,1.295,0.969,1.786,2.165,1.095l20.042-11.571
						c1.196-0.69,2.165-2.3,2.165-3.595c0-1.295-0.969-1.786-2.165-1.095l-20.042,11.571
						C197.211,305.275,196.242,306.884,196.242,308.18z"/>
					<path id="XMLID_257_" style="fill:#27DEBF;" d="M188.117,321.416v1.691c0,0.828,0.582,1.164,1.299,0.75l1.465-0.846
						c0.717-0.414,1.299-1.421,1.299-2.25l0-1.691c0-0.828-0.582-1.164-1.299-0.75l-1.464,0.846
						C188.699,319.58,188.117,320.587,188.117,321.416z"/>
					<path id="XMLID_253_" style="fill:#E0E0E0;" d="M196.242,317.57c0,1.295,0.969,1.786,2.165,1.095l20.042-11.571
						c1.196-0.69,2.165-2.3,2.165-3.595c0-1.295-0.969-1.785-2.165-1.095l-20.042,11.571
						C197.211,314.665,196.242,316.275,196.242,317.57z"/>
					<path id="XMLID_259_" style="fill:#27DEBF;" d="M188.117,330.79v1.69c0,0.828,0.582,1.164,1.299,0.75l1.465-0.846
						c0.717-0.414,1.299-1.421,1.299-2.25l0-1.691c0-0.828-0.582-1.164-1.299-0.75l-1.464,0.846
						C188.699,328.954,188.117,329.962,188.117,330.79z"/>
					<path id="XMLID_258_" style="fill:#E0E0E0;" d="M196.242,326.944c0,1.295,0.969,1.786,2.165,1.096l20.042-11.571
						c1.196-0.69,2.165-2.3,2.165-3.595c0-1.295-0.969-1.786-2.165-1.095l-20.042,11.571
						C197.211,324.039,196.242,325.649,196.242,326.944z"/>
					<path id="XMLID_266_" style="fill:#27DEBF;" d="M188.117,340.16v1.69c0,0.828,0.582,1.164,1.299,0.75l1.465-0.846
						c0.717-0.414,1.299-1.421,1.299-2.25l0-1.691c0-0.828-0.582-1.164-1.299-0.75l-1.464,0.846
						C188.699,338.325,188.117,339.332,188.117,340.16z"/>
					<path id="XMLID_260_" style="fill:#E0E0E0;" d="M196.242,336.315c0,1.295,0.969,1.786,2.165,1.095l20.042-11.571
						c1.196-0.69,2.165-2.3,2.165-3.595c0-1.295-0.969-1.786-2.165-1.095l-20.042,11.571
						C197.211,333.41,196.242,335.02,196.242,336.315z"/>
				</g>
			</g>
			<g id="XMLID_275_">
				<path id="XMLID_343_" style="fill:#E0E0E0;" d="M190.111,351.582l28.166-16.262c1.196-0.69,2.165-0.2,2.165,1.096
					s-0.969,2.905-2.165,3.596l-28.167,16.262c-1.196,0.69-2.165,0.2-2.164-1.096C187.946,353.883,188.916,352.273,190.111,351.582z
					"/>
				<g id="XMLID_279_">
					<path id="XMLID_342_" style="fill:#27DEBF;" d="M187.945,363.714v1.691c0,0.828,0.582,1.164,1.299,0.75l1.465-0.846
						c0.717-0.414,1.299-1.421,1.299-2.25l0-1.691c0-0.828-0.582-1.164-1.299-0.75l-1.465,0.846
						C188.527,361.878,187.945,362.886,187.945,363.714z"/>
					<path id="XMLID_341_" style="fill:#E0E0E0;" d="M196.07,359.868c0,1.295,0.969,1.786,2.165,1.095l20.042-11.571
						c1.196-0.69,2.165-2.3,2.165-3.595c0-1.295-0.969-1.786-2.165-1.095l-20.042,11.571
						C197.039,356.963,196.07,358.573,196.07,359.868z"/>
					<path id="XMLID_340_" style="fill:#27DEBF;" d="M187.945,373.104v1.69c0,0.828,0.582,1.164,1.299,0.75l1.465-0.845
						c0.717-0.414,1.299-1.421,1.299-2.25l0-1.691c0-0.828-0.582-1.164-1.299-0.75l-1.465,0.846
						C188.527,371.268,187.945,372.276,187.945,373.104z"/>
					<path id="XMLID_339_" style="fill:#E0E0E0;" d="M196.07,369.259c0,1.295,0.969,1.786,2.165,1.096l20.042-11.571
						c1.196-0.69,2.165-2.3,2.165-3.595c0-1.295-0.969-1.786-2.165-1.095l-20.042,11.571
						C197.039,366.354,196.07,367.963,196.07,369.259z"/>
					<path id="XMLID_338_" style="fill:#27DEBF;" d="M187.945,382.479v1.69c0,0.828,0.582,1.164,1.299,0.75l1.465-0.846
						c0.717-0.414,1.299-1.421,1.299-2.25l0-1.691c0-0.828-0.582-1.164-1.299-0.75l-1.465,0.846
						C188.527,380.643,187.945,381.65,187.945,382.479z"/>
					<path id="XMLID_337_" style="fill:#E0E0E0;" d="M196.07,378.633c0,1.295,0.969,1.786,2.165,1.096l20.042-11.571
						c1.196-0.69,2.165-2.3,2.165-3.595c0-1.295-0.969-1.786-2.165-1.095l-20.042,11.571
						C197.039,375.728,196.07,377.338,196.07,378.633z"/>
					<path id="XMLID_299_" style="fill:#27DEBF;" d="M187.945,391.849v1.69c0,0.829,0.582,1.164,1.299,0.75l1.465-0.846
						c0.717-0.414,1.299-1.421,1.299-2.25l0-1.691c0-0.828-0.582-1.164-1.299-0.75l-1.465,0.846
						C188.527,390.013,187.945,391.021,187.945,391.849z"/>
					<path id="XMLID_297_" style="fill:#E0E0E0;" d="M196.07,388.004c0,1.295,0.969,1.786,2.165,1.095l20.042-11.571
						c1.196-0.69,2.165-2.3,2.165-3.595c0-1.295-0.969-1.785-2.165-1.095l-20.042,11.571
						C197.039,385.098,196.07,386.708,196.07,388.004z"/>
				</g>
			</g>
		</g>
		<g id="XMLID_488_">
			<path id="XMLID_422_" style="fill:#27DEBF;" d="M334.35,252.049v2.319c0,1.381,0.967,1.937,2.161,1.242l56.609-32.946
				c1.193-0.695,2.161-2.377,2.161-3.757l0-2.036c0-1.381-0.969-1.94-2.165-1.25l-56.601,32.678
				C335.32,248.99,334.35,250.669,334.35,252.049z"/>
			<g id="XMLID_480_">
				<path id="XMLID_478_" style="fill:#E6E6E6;" d="M336.516,262.371l64.726-37.369c1.196-0.69,2.165-0.2,2.165,1.095
					c0,1.295-0.969,2.905-2.165,3.595l-64.725,37.369c-1.196,0.69-2.165,0.2-2.166-1.095
					C334.351,264.671,335.32,263.061,336.516,262.371z"/>
				<path id="XMLID_481_" style="fill:#E6E6E6;" d="M336.516,271.746l64.726-37.369c1.196-0.69,2.165-0.2,2.165,1.095
					c0,1.295-0.969,2.905-2.165,3.595l-64.725,37.369c-1.196,0.69-2.165,0.2-2.166-1.095
					C334.351,274.046,335.32,272.437,336.516,271.746z"/>
				<path id="XMLID_482_" style="fill:#E6E6E6;" d="M336.516,281.121l64.726-37.369c1.196-0.69,2.165-0.2,2.165,1.095
					c0,1.295-0.969,2.905-2.165,3.595l-64.725,37.369c-1.196,0.69-2.165,0.2-2.166-1.095
					C334.351,283.421,335.32,281.812,336.516,281.121z"/>
				<path id="XMLID_483_" style="fill:#E6E6E6;" d="M336.516,290.497l64.726-37.369c1.196-0.69,2.165-0.2,2.165,1.095
					c0,1.295-0.969,2.905-2.165,3.595l-64.725,37.369c-1.196,0.69-2.165,0.2-2.166-1.095
					C334.351,292.797,335.32,291.187,336.516,290.497z"/>
				<path id="XMLID_484_" style="fill:#E6E6E6;" d="M336.516,299.872l64.726-37.369c1.196-0.69,2.165-0.2,2.165,1.095
					c0,1.295-0.969,2.905-2.165,3.595l-64.725,37.369c-1.196,0.69-2.165,0.2-2.166-1.095S335.32,300.562,336.516,299.872z"/>
				<path id="XMLID_485_" style="fill:#E6E6E6;" d="M336.516,309.247l64.726-37.369c1.196-0.69,2.165-0.2,2.165,1.095
					s-0.969,2.905-2.165,3.595l-64.725,37.369c-1.196,0.69-2.165,0.2-2.166-1.095C334.351,311.547,335.32,309.937,336.516,309.247z"
					/>
				<path id="XMLID_486_" style="fill:#E6E6E6;" d="M336.516,318.622l64.726-37.369c1.196-0.69,2.165-0.2,2.165,1.095
					s-0.969,2.905-2.165,3.595l-64.725,37.369c-1.196,0.69-2.165,0.2-2.166-1.095C334.351,320.922,335.32,319.313,336.516,318.622z"
					/>
				<path id="XMLID_487_" style="fill:#E6E6E6;" d="M336.516,327.997l64.726-37.369c1.196-0.69,2.165-0.2,2.165,1.095
					c0,1.295-0.969,2.905-2.165,3.595l-64.725,37.369c-1.196,0.69-2.165,0.2-2.166-1.095
					C334.351,330.297,335.32,328.688,336.516,327.997z"/>
			</g>
		</g>
		<g id="XMLID_406_">
			<path id="XMLID_357_" style="fill:#27DEBF;" d="M239.026,304.584l85.036-49.094c1.196-0.69,2.165-0.131,2.165,1.25v84.118
				c0,1.381-0.969,3.06-2.165,3.75l-85.034,49.095c-1.196,0.69-2.165,0.131-2.165-1.25l-0.002-84.12
				C236.861,306.953,237.831,305.274,239.026,304.584z"/>
			<path id="XMLID_393_" style="opacity:0.8;fill:#FFFFFF;" d="M239.026,304.584l85.036-49.094c1.196-0.69,2.165-0.131,2.165,1.25
				v84.118c0,1.381-0.969,3.06-2.165,3.75l-85.034,49.095c-1.196,0.69-2.165,0.131-2.165-1.25l-0.002-84.12
				C236.861,306.953,237.831,305.274,239.026,304.584z"/>
			<path id="XMLID_479_" style="fill:#27DEBF;" d="M302.507,303.207L288.3,328.353l9.985,12.944l-32.989-28.426l-28.433,61.558
				l0.001,18.025c0,1.381,0.969,1.94,2.165,1.25l85.034-49.095c1.196-0.69,2.165-2.369,2.165-3.75v-15.963L302.507,303.207z"/>
			<path id="XMLID_419_" style="fill:#27DEBF;" d="M305.915,277.331c3.537-2.043,6.404-0.387,6.404,3.697
				c0,4.085-2.867,9.052-6.404,11.094s-6.404,0.387-6.404-3.697S302.378,279.374,305.915,277.331z"/>
		</g>
		<g id="XMLID_351_">
			<path id="XMLID_356_" style="fill:#455A64;" d="M182.16,262.371l219.081-126.489c1.196-0.69,2.165-0.131,2.165,1.25
				l-0.001,23.144c0,1.381-0.969,3.06-2.165,3.75l-219.08,126.487c-1.196,0.69-2.165,0.131-2.165-1.25l0-23.142
				C179.994,264.74,180.964,263.061,182.16,262.371z"/>
			<g id="XMLID_349_">
				<path id="XMLID_265_" style="fill:#FAFAFA;" d="M322.164,193.592l0.001,4.036c0,0.825,0.585,1.162,1.299,0.75l63.693-36.773
					l0-7.036l-63.693,36.773C322.749,191.755,322.164,192.767,322.164,193.592z"/>
				<path id="XMLID_264_" style="fill:#27DEBF;" d="M393.982,150.628c0.717-0.414,1.299-0.078,1.299,0.75v4.036
					c0,0.828-0.582,1.836-1.299,2.25l-6.825,3.941l0-7.036L393.982,150.628z"/>
				<path id="XMLID_261_" style="fill:#FAFAFA;" d="M393.477,156.162l-0.761-0.237c0.078-0.323,0.122-0.655,0.122-0.981
					c0-0.779-0.253-1.371-0.694-1.626c-0.328-0.189-0.722-0.17-1.11,0.054c-0.853,0.492-1.521,1.883-1.521,3.166
					c0,0.779,0.253,1.371,0.694,1.626c0.15,0.086,0.313,0.129,0.483,0.129c0.203,0,0.416-0.061,0.627-0.183
					c0.513-0.296,0.955-0.919,1.23-1.646l0.763,0.238c0.028,0.009,0.056,0.013,0.084,0.013c0.12,0,0.232-0.077,0.27-0.199
					C393.709,156.367,393.626,156.208,393.477,156.162z M391.034,157.621c-0.211,0.122-0.394,0.141-0.545,0.053
					c-0.254-0.147-0.412-0.582-0.412-1.137c0-1.063,0.567-2.289,1.239-2.677c0.124-0.071,0.238-0.107,0.342-0.107
					c0.073,0,0.141,0.018,0.203,0.054c0.254,0.147,0.411,0.582,0.411,1.137C392.273,156.007,391.706,157.233,391.034,157.621z"/>
			</g>
		</g>
		<g id="XMLID_345_">
			<path id="XMLID_270_" style="fill:#27DEBF;" d="M236.861,266.121v27.832c0,1.381,0.969,1.94,2.165,1.25L401.24,201.55
				c1.196-0.69,2.165-2.369,2.165-3.75l0-27.833c0-1.381-0.969-1.94-2.165-1.25l-162.214,93.654
				C237.831,263.061,236.861,264.74,236.861,266.121z"/>
			<path id="XMLID_344_" style="opacity:0.7;fill:#FFFFFF;" d="M236.861,266.121v27.832c0,1.381,0.969,1.94,2.165,1.25
				L401.24,201.55c1.196-0.69,2.165-2.369,2.165-3.75l0-27.833c0-1.381-0.969-1.94-2.165-1.25l-162.214,93.654
				C237.831,263.061,236.861,264.74,236.861,266.121z"/>
		</g>
		<path id="XMLID_16384_" style="fill:#E6E6E6;" d="M411.516,106.502v14.08L171.872,258.937v-14.08l4.451-2.578
			c1.19-0.69,1.59-1.739,2.16-3.75l1.509-5.242c0.476-1.82,0.97-3.06,2.17-3.75l51.651-29.823c1.2-0.69,2.136-0.766,3.049,0.743
			l1.852,3.361c0.679,1.174,1.019,1.864,2.209,1.174L411.516,106.502z"/>
		<g id="XMLID_16485_">
			<path id="XMLID_16513_" style="fill:#FFFFFF;" d="M401.365,102.188c1.505-0.869,2.724-0.164,2.724,1.573
				c0,1.737-1.22,3.85-2.724,4.719c-1.505,0.869-2.724,0.164-2.724-1.573C398.64,105.169,399.86,103.057,401.365,102.188z"/>
			<path id="XMLID_16512_" style="fill:#FFFFFF;" d="M391.556,107.843c1.505-0.869,2.724-0.164,2.724,1.573
				c0,1.737-1.22,3.85-2.724,4.719c-1.505,0.869-2.724,0.164-2.724-1.573C388.832,110.824,390.052,108.712,391.556,107.843z"/>
			<path id="XMLID_16511_" style="fill:#FFFFFF;" d="M381.748,113.498c1.505-0.869,2.724-0.164,2.724,1.573
				c0,1.737-1.22,3.85-2.724,4.719c-1.505,0.869-2.724,0.164-2.724-1.573C379.023,116.479,380.243,114.367,381.748,113.498z"/>
		</g>
		<path id="XMLID_16490_" style="opacity:0.5;fill:#455A64;" d="M181.803,245.872l-3.399,1.962l1.296-2.492
			c0.114-0.219,0.125-0.491,0.026-0.609c-0.099-0.119-0.272-0.035-0.385,0.183l-1.844,3.547c-0.002,0.004-0.003,0.009-0.005,0.014
			c-0.02,0.041-0.036,0.085-0.049,0.131c-0.005,0.015-0.012,0.028-0.015,0.043c-0.015,0.061-0.024,0.123-0.024,0.183
			c0,0.061,0.009,0.112,0.024,0.156c0.004,0.011,0.011,0.016,0.015,0.026c0.014,0.03,0.029,0.057,0.049,0.074
			c0.002,0.002,0.003,0.006,0.005,0.008l1.844,1.418c0.052,0.04,0.116,0.037,0.18,0c0.076-0.044,0.152-0.136,0.206-0.263
			c0.1-0.233,0.088-0.492-0.026-0.579l-1.296-0.996l3.399-1.962c0.151-0.087,0.273-0.346,0.273-0.579
			C182.076,245.903,181.954,245.785,181.803,245.872z"/>
		<path id="XMLID_16486_" style="opacity:0.5;fill:#455A64;" d="M184.642,244.233l3.399-1.962l-1.296-0.996
			c-0.114-0.087-0.126-0.346-0.026-0.579c0.099-0.233,0.272-0.349,0.385-0.262l1.844,1.418c0.002,0.002,0.003,0.006,0.005,0.008
			c0.02,0.017,0.036,0.044,0.049,0.074c0.005,0.01,0.012,0.015,0.015,0.026c0.015,0.043,0.024,0.095,0.024,0.156
			c0,0.061-0.009,0.123-0.024,0.183c-0.004,0.015-0.011,0.029-0.015,0.043c-0.014,0.046-0.029,0.09-0.049,0.131
			c-0.002,0.004-0.003,0.009-0.005,0.014l-1.844,3.547c-0.052,0.1-0.116,0.171-0.18,0.208c-0.076,0.044-0.152,0.039-0.206-0.025
			c-0.1-0.117-0.088-0.39,0.026-0.609l1.296-2.492l-3.399,1.962c-0.151,0.087-0.273-0.031-0.273-0.263
			C184.368,244.579,184.491,244.32,184.642,244.233z"/>
		<path id="XMLID_15775_" style="opacity:0.5;fill:#455A64;" d="M195.792,234.446c-0.021-0.205-0.199-0.179-0.29,0.043l-0.466,1.138
			c-0.794-0.086-1.756,0.689-2.405,2.064c-0.842,1.782-0.842,3.891,0,4.701c0.421,0.405,0.974,0.41,1.527,0.09
			c0.553-0.319,1.105-0.962,1.526-1.853c0.107-0.226,0.107-0.492,0-0.595c-0.107-0.103-0.28-0.003-0.387,0.223
			c-0.628,1.329-1.651,1.922-2.28,1.316c-0.629-0.605-0.629-2.18,0-3.51c0.447-0.947,1.091-1.507,1.652-1.541l-0.351,0.858
			c-0.091,0.223-0.008,0.43,0.135,0.337l1.386-0.905c0.097-0.063,0.169-0.24,0.155-0.38L195.792,234.446z"/>
		<path id="XMLID_16043_" style="opacity:0.5;fill:#455A64;" d="M232.322,206.141l1.239-2.623c0.146-0.31,0.146-0.675,0-0.816
			c-0.146-0.141-0.384-0.004-0.53,0.306l-1.239,2.623l-1.239-1.192c-0.147-0.141-0.384-0.004-0.53,0.306s-0.146,0.675,0,0.816
			l1.239,1.192l-1.239,2.623c-0.146,0.31-0.146,0.676,0,0.816c0.073,0.07,0.169,0.071,0.265,0.016
			c0.096-0.055,0.192-0.167,0.265-0.322l1.239-2.623l1.239,1.192c0.073,0.07,0.169,0.071,0.265,0.016
			c0.096-0.055,0.192-0.167,0.265-0.322c0.146-0.31,0.146-0.675,0-0.816L232.322,206.141z"/>
		<path id="XMLID_15769_" style="fill:#FAFAFA;" d="M200.302,237.67v-4.381c0-1.381,0.969-3.06,2.165-3.75l194.702-112.353
			c1.196-0.69,2.165-0.131,2.165,1.25l0,4.381c0,1.381-0.969,3.06-2.165,3.75L202.467,238.92
			C201.271,239.61,200.302,239.051,200.302,237.67z"/>
		<path id="XMLID_16161_" style="fill:none;stroke:#E0E0E0;stroke-width:0.75;stroke-miterlimit:10;" d="M395.906,119.501
			l0.569,1.208c0.036,0.076,0.105,0.103,0.185,0.073l1.271-0.488c0.202-0.077,0.283,0.207,0.136,0.481l-0.92,1.727
			c-0.058,0.109-0.085,0.233-0.071,0.332l0.217,1.563c0.035,0.248-0.177,0.575-0.357,0.552l-1.137-0.141
			c-0.072-0.009-0.157,0.041-0.229,0.132l-1.137,1.454c-0.181,0.231-0.392,0.148-0.357-0.14l0.217-1.814
			c0.014-0.114-0.013-0.208-0.071-0.25l-0.92-0.665c-0.146-0.106-0.065-0.483,0.137-0.639l1.271-0.98
			c0.08-0.062,0.15-0.169,0.185-0.287l0.569-1.864C395.555,119.46,395.816,119.31,395.906,119.501z"/>
		<g id="XMLID_15675_" style="opacity:0.5;">
			<g id="XMLID_439_">
				<path id="XMLID_442_" style="fill:#455A64;" d="M401.887,116.652c-0.26,0-0.512-0.134-0.65-0.375
					c-0.207-0.359-0.084-0.817,0.274-1.024l6.093-3.518c0.36-0.207,0.817-0.084,1.025,0.274c0.207,0.359,0.084,0.817-0.275,1.025
					l-6.093,3.518C402.143,116.62,402.014,116.652,401.887,116.652z"/>
			</g>
			<g id="XMLID_438_">
				<path id="XMLID_441_" style="fill:#455A64;" d="M401.887,120.171c-0.26,0-0.512-0.134-0.65-0.375
					c-0.207-0.359-0.084-0.817,0.274-1.024l6.093-3.518c0.36-0.209,0.817-0.084,1.025,0.274c0.207,0.359,0.084,0.817-0.275,1.024
					l-6.093,3.518C402.143,120.139,402.014,120.171,401.887,120.171z"/>
			</g>
			<g id="XMLID_437_">
				<path id="XMLID_440_" style="fill:#455A64;" d="M401.887,123.69c-0.26,0-0.512-0.134-0.65-0.375
					c-0.207-0.359-0.084-0.817,0.274-1.024l6.093-3.518c0.36-0.209,0.817-0.084,1.025,0.274c0.207,0.359,0.084,0.817-0.275,1.024
					l-6.093,3.518C402.143,123.658,402.014,123.69,401.887,123.69z"/>
			</g>
		</g>
		<polygon id="XMLID_15229_" style="fill:#E0E0E0;" points="171.872,244.857 171.872,258.937 167.801,256.587 167.801,242.517 		"/>
	</g>
</g>
</svg>
